{
	"asset":{
		"generator":"Khronos glTF Blender I/O v4.4.55",
		"version":"2.0"
	},
	"extensionsUsed":[
		"KHR_materials_emissive_strength"
	],
	"scene":0,
	"scenes":[
		{
			"name":"Scene",
			"nodes":[
				0,
				1,
				2,
				3,
				4
			]
		}
	],
	"nodes":[
		{
			"mesh":0,
			"name":"Cube"
		},
		{
			"camera":0,
			"name":"Camera",
			"translation":[
				0,
				-0.10000000149011612,
				13.33596420288086
			]
		},
		{
			"mesh":1,
			"name":"LeftCube"
		},
		{
			"mesh":2,
			"name":"Plane"
		},
		{
			"mesh":3,
			"name":"RightCube"
		}
	],
	"cameras":[
		{
			"name":"Camera",
			"perspective":{
				"aspectRatio":1.7777777777777777,
				"yfov":0.39959651231765747,
				"zfar":100,
				"znear":0.10000000149011612
			},
			"type":"perspective"
		}
	],
	"materials":[
		{
			"doubleSided":true,
			"name":"Floor",
			"pbrMetallicRoughness":{
				"baseColorFactor":[
					0.8,
					0.8,
					0.8,
					1
				],
				"metallicFactor":0
			}
		},
		{
			"doubleSided":true,
			"name":"Wall",
			"pbrMetallicRoughness":{
				"baseColorFactor":[
					0.8003311157226562,
					0.710861325263977,
					0.4258206784725189,
					1
				],
				"metallicFactor":0
			}
		},
		{
			"doubleSided":true,
			"name":"Ceiling",
			"pbrMetallicRoughness":{
				"baseColorFactor":[
					0.7503311157226562,
					0.660861325263977,
					0.3758206784725189,
					1
				],
				"metallicFactor":0
			}
		},
		{
			"doubleSided":true,
			"name":"Red",
			"pbrMetallicRoughness":{
				"baseColorFactor":[
					0.2815858721733093,
					0.10001064091920853,
					0.07550500333309174,
					1
				],
				"metallicFactor":0
			}
		},
		{
			"doubleSided":true,
			"name":"Green",
			"pbrMetallicRoughness":{
				"baseColorFactor":[
					0.12257902324199677,
					0.2982518672943115,
					0.05788760632276535,
					1
				],
				"metallicFactor":0
			}
		},
		{
			"doubleSided":true,
			"name":"Steel",
			"pbrMetallicRoughness":{
				"baseColorFactor":[
					0.327483206987381,
					0.327483206987381,
					0.327483206987381,
					1
				],
				"metallicFactor":0.3056994676589966,
				"roughnessFactor":0.38082900643348694
			}
		},
		{
			"doubleSided":true,
			"emissiveFactor":[
				1,
				1,
				1
			],
			"extensions":{
				"KHR_materials_emissive_strength":{
					"emissiveStrength":100
				}
			},
			"name":"Light",
			"pbrMetallicRoughness":{
				"baseColorFactor":[
					0,
					0,
					0,
					1
				]
			}
		}
	],
	"meshes":[
		{
			"name":"Cube",
			"primitives":[
				{
					"attributes":{
						"POSITION":0,
						"NORMAL":1,
						"TEXCOORD_0":2,
						"TANGENT":3
					},
					"indices":4,
					"material":0
				},
				{
					"attributes":{
						"POSITION":5,
						"NORMAL":6,
						"TEXCOORD_0":7,
						"TANGENT":8
					},
					"indices":9,
					"material":1
				},
				{
					"attributes":{
						"POSITION":10,
						"NORMAL":11,
						"TEXCOORD_0":12,
						"TANGENT":13
					},
					"indices":14,
					"material":2
				},
				{
					"attributes":{
						"POSITION":15,
						"NORMAL":16,
						"TEXCOORD_0":17,
						"TANGENT":18
					},
					"indices":19,
					"material":3
				},
				{
					"attributes":{
						"POSITION":20,
						"NORMAL":21,
						"TEXCOORD_0":22,
						"TANGENT":23
					},
					"indices":24,
					"material":4
				}
			]
		},
		{
			"name":"LeftCube",
			"primitives":[
				{
					"attributes":{
						"POSITION":25,
						"NORMAL":26,
						"TEXCOORD_0":27,
						"TANGENT":28
					},
					"indices":29,
					"material":5
				}
			]
		},
		{
			"name":"Plane",
			"primitives":[
				{
					"attributes":{
						"POSITION":30,
						"NORMAL":31,
						"TEXCOORD_0":32,
						"TANGENT":33
					},
					"indices":14,
					"material":6
				}
			]
		},
		{
			"name":"RightCube",
			"primitives":[
				{
					"attributes":{
						"POSITION":34,
						"NORMAL":35,
						"TEXCOORD_0":36,
						"TANGENT":37
					},
					"indices":38
				}
			]
		}
	],
	"accessors":[
		{
			"bufferView":0,
			"componentType":5126,
			"count":4,
			"max":[
				2.036391019821167,
				-2.2624692916870117,
				13.898136138916016
			],
			"min":[
				-2.036391019821167,
				-2.2624692916870117,
				-2.195133686065674
			],
			"type":"VEC3"
		},
		{
			"bufferView":1,
			"componentType":5126,
			"count":4,
			"type":"VEC3"
		},
		{
			"bufferView":2,
			"componentType":5126,
			"count":4,
			"type":"VEC2"
		},
		{
			"bufferView":3,
			"componentType":5126,
			"count":4,
			"type":"VEC4"
		},
		{
			"bufferView":4,
			"componentType":5123,
			"count":6,
			"type":"SCALAR"
		},
		{
			"bufferView":5,
			"componentType":5126,
			"count":8,
			"max":[
				2.036391019821167,
				2.2624692916870117,
				13.898136138916016
			],
			"min":[
				-2.036391019821167,
				-2.2624692916870117,
				-2.195133686065674
			],
			"type":"VEC3"
		},
		{
			"bufferView":6,
			"componentType":5126,
			"count":8,
			"type":"VEC3"
		},
		{
			"bufferView":7,
			"componentType":5126,
			"count":8,
			"type":"VEC2"
		},
		{
			"bufferView":8,
			"componentType":5126,
			"count":8,
			"type":"VEC4"
		},
		{
			"bufferView":9,
			"componentType":5123,
			"count":12,
			"type":"SCALAR"
		},
		{
			"bufferView":10,
			"componentType":5126,
			"count":4,
			"max":[
				2.036391019821167,
				2.2624692916870117,
				13.898136138916016
			],
			"min":[
				-2.036391019821167,
				2.2624692916870117,
				-2.195133686065674
			],
			"type":"VEC3"
		},
		{
			"bufferView":11,
			"componentType":5126,
			"count":4,
			"type":"VEC3"
		},
		{
			"bufferView":12,
			"componentType":5126,
			"count":4,
			"type":"VEC2"
		},
		{
			"bufferView":13,
			"componentType":5126,
			"count":4,
			"type":"VEC4"
		},
		{
			"bufferView":14,
			"componentType":5123,
			"count":6,
			"type":"SCALAR"
		},
		{
			"bufferView":15,
			"componentType":5126,
			"count":4,
			"max":[
				-2.036391019821167,
				2.2624692916870117,
				13.898136138916016
			],
			"min":[
				-2.036391019821167,
				-2.2624692916870117,
				-2.195133686065674
			],
			"type":"VEC3"
		},
		{
			"bufferView":16,
			"componentType":5126,
			"count":4,
			"type":"VEC3"
		},
		{
			"bufferView":17,
			"componentType":5126,
			"count":4,
			"type":"VEC2"
		},
		{
			"bufferView":18,
			"componentType":5126,
			"count":4,
			"type":"VEC4"
		},
		{
			"bufferView":19,
			"componentType":5123,
			"count":6,
			"type":"SCALAR"
		},
		{
			"bufferView":20,
			"componentType":5126,
			"count":4,
			"max":[
				2.036391019821167,
				2.2624692916870117,
				13.898136138916016
			],
			"min":[
				2.036391019821167,
				-2.2624692916870117,
				-2.195133686065674
			],
			"type":"VEC3"
		},
		{
			"bufferView":21,
			"componentType":5126,
			"count":4,
			"type":"VEC3"
		},
		{
			"bufferView":22,
			"componentType":5126,
			"count":4,
			"type":"VEC2"
		},
		{
			"bufferView":23,
			"componentType":5126,
			"count":4,
			"type":"VEC4"
		},
		{
			"bufferView":24,
			"componentType":5123,
			"count":6,
			"type":"SCALAR"
		},
		{
			"bufferView":25,
			"componentType":5126,
			"count":24,
			"max":[
				-0.23397749662399292,
				0.11202430725097656,
				-0.3011093735694885
			],
			"min":[
				-1.6543967723846436,
				-2.266648292541504,
				-1.7215287685394287
			],
			"type":"VEC3"
		},
		{
			"bufferView":26,
			"componentType":5126,
			"count":24,
			"type":"VEC3"
		},
		{
			"bufferView":27,
			"componentType":5126,
			"count":24,
			"type":"VEC2"
		},
		{
			"bufferView":28,
			"componentType":5126,
			"count":24,
			"type":"VEC4"
		},
		{
			"bufferView":29,
			"componentType":5123,
			"count":36,
			"type":"SCALAR"
		},
		{
			"bufferView":30,
			"componentType":5126,
			"count":4,
			"max":[
				0.45218712091445923,
				2.2610514163970947,
				0.45218712091445923
			],
			"min":[
				-0.45218712091445923,
				2.2610509395599365,
				-0.45218712091445923
			],
			"type":"VEC3"
		},
		{
			"bufferView":31,
			"componentType":5126,
			"count":4,
			"type":"VEC3"
		},
		{
			"bufferView":32,
			"componentType":5126,
			"count":4,
			"type":"VEC2"
		},
		{
			"bufferView":33,
			"componentType":5126,
			"count":4,
			"type":"VEC4"
		},
		{
			"bufferView":34,
			"componentType":5126,
			"count":24,
			"max":[
				1.6684410572052002,
				-0.8627873659133911,
				1.4321025609970093
			],
			"min":[
				0.2504005432128906,
				-2.392425060272217,
				0.014062047004699707
			],
			"type":"VEC3"
		},
		{
			"bufferView":35,
			"componentType":5126,
			"count":24,
			"type":"VEC3"
		},
		{
			"bufferView":36,
			"componentType":5126,
			"count":24,
			"type":"VEC2"
		},
		{
			"bufferView":37,
			"componentType":5126,
			"count":24,
			"type":"VEC4"
		},
		{
			"bufferView":38,
			"componentType":5123,
			"count":36,
			"type":"SCALAR"
		}
	],
	"bufferViews":[
		{
			"buffer":0,
			"byteLength":48,
			"byteOffset":0,
			"target":34962
		},
		{
			"buffer":0,
			"byteLength":48,
			"byteOffset":48,
			"target":34962
		},
		{
			"buffer":0,
			"byteLength":32,
			"byteOffset":96,
			"target":34962
		},
		{
			"buffer":0,
			"byteLength":64,
			"byteOffset":128,
			"target":34962
		},
		{
			"buffer":0,
			"byteLength":12,
			"byteOffset":192,
			"target":34963
		},
		{
			"buffer":0,
			"byteLength":96,
			"byteOffset":204,
			"target":34962
		},
		{
			"buffer":0,
			"byteLength":96,
			"byteOffset":300,
			"target":34962
		},
		{
			"buffer":0,
			"byteLength":64,
			"byteOffset":396,
			"target":34962
		},
		{
			"buffer":0,
			"byteLength":128,
			"byteOffset":460,
			"target":34962
		},
		{
			"buffer":0,
			"byteLength":24,
			"byteOffset":588,
			"target":34963
		},
		{
			"buffer":0,
			"byteLength":48,
			"byteOffset":612,
			"target":34962
		},
		{
			"buffer":0,
			"byteLength":48,
			"byteOffset":660,
			"target":34962
		},
		{
			"buffer":0,
			"byteLength":32,
			"byteOffset":708,
			"target":34962
		},
		{
			"buffer":0,
			"byteLength":64,
			"byteOffset":740,
			"target":34962
		},
		{
			"buffer":0,
			"byteLength":12,
			"byteOffset":804,
			"target":34963
		},
		{
			"buffer":0,
			"byteLength":48,
			"byteOffset":816,
			"target":34962
		},
		{
			"buffer":0,
			"byteLength":48,
			"byteOffset":864,
			"target":34962
		},
		{
			"buffer":0,
			"byteLength":32,
			"byteOffset":912,
			"target":34962
		},
		{
			"buffer":0,
			"byteLength":64,
			"byteOffset":944,
			"target":34962
		},
		{
			"buffer":0,
			"byteLength":12,
			"byteOffset":1008,
			"target":34963
		},
		{
			"buffer":0,
			"byteLength":48,
			"byteOffset":1020,
			"target":34962
		},
		{
			"buffer":0,
			"byteLength":48,
			"byteOffset":1068,
			"target":34962
		},
		{
			"buffer":0,
			"byteLength":32,
			"byteOffset":1116,
			"target":34962
		},
		{
			"buffer":0,
			"byteLength":64,
			"byteOffset":1148,
			"target":34962
		},
		{
			"buffer":0,
			"byteLength":12,
			"byteOffset":1212,
			"target":34963
		},
		{
			"buffer":0,
			"byteLength":288,
			"byteOffset":1224,
			"target":34962
		},
		{
			"buffer":0,
			"byteLength":288,
			"byteOffset":1512,
			"target":34962
		},
		{
			"buffer":0,
			"byteLength":192,
			"byteOffset":1800,
			"target":34962
		},
		{
			"buffer":0,
			"byteLength":384,
			"byteOffset":1992,
			"target":34962
		},
		{
			"buffer":0,
			"byteLength":72,
			"byteOffset":2376,
			"target":34963
		},
		{
			"buffer":0,
			"byteLength":48,
			"byteOffset":2448,
			"target":34962
		},
		{
			"buffer":0,
			"byteLength":48,
			"byteOffset":2496,
			"target":34962
		},
		{
			"buffer":0,
			"byteLength":32,
			"byteOffset":2544,
			"target":34962
		},
		{
			"buffer":0,
			"byteLength":64,
			"byteOffset":2576,
			"target":34962
		},
		{
			"buffer":0,
			"byteLength":288,
			"byteOffset":2640,
			"target":34962
		},
		{
			"buffer":0,
			"byteLength":288,
			"byteOffset":2928,
			"target":34962
		},
		{
			"buffer":0,
			"byteLength":192,
			"byteOffset":3216,
			"target":34962
		},
		{
			"buffer":0,
			"byteLength":384,
			"byteOffset":3408,
			"target":34962
		},
		{
			"buffer":0,
			"byteLength":72,
			"byteOffset":3792,
			"target":34963
		}
	],
	"buffers":[
		{
			"byteLength":3864,
			"uri":"closed_cornell_box.bin"
		}
	]
}
