{
	"asset":{
		"generator":"Khronos glTF Blender I/O v4.3.47",
		"version":"2.0"
	},
	"extensionsUsed":[
		"KHR_materials_emissive_strength"
	],
	"scene":0,
	"scenes":[
		{
			"name":"Scene",
			"nodes":[
				0,
				1,
				2,
				3,
				4
			]
		}
	],
	"nodes":[
		{
			"mesh":0,
			"name":"Cube"
		},
		{
			"camera":0,
			"name":"Camera",
			"translation":[
				0,
				-0.1,
				13.33596420288086
			]
		},
		{
			"mesh":1,
			"name":"LeftCube"
		},
		{
			"mesh":2,
			"name":"Plane"
		},
		{
			"mesh":3,
			"name":"RightCube"
		}
	],
	"cameras":[
		{
			"name":"Camera",
			"perspective":{
				"aspectRatio":1.7777777777777777,
				"yfov":0.39959652046304894,
				"zfar":100,
				"znear":0.10000000149011612
			},
			"type":"perspective"
		}
	],
	"materials":[
		{
			"doubleSided":true,
			"name":"Base",
			"pbrMetallicRoughness":{
				"baseColorFactor":[
					0.8003311157226562,
					0.710861325263977,
					0.4258206725120544,
					1
				],
				"metallicFactor":0
			}
		},
		{
			"doubleSided":true,
			"name":"Red",
			"pbrMetallicRoughness":{
				"baseColorFactor":[
					0.2815858590602875,
					0.10001063764095306,
					0.07550500625371933,
					1
				],
				"metallicFactor":0
			}
		},
		{
			"doubleSided":true,
			"name":"Green",
			"pbrMetallicRoughness":{
				"baseColorFactor":[
					0.122579026222229,
					0.2982518672943115,
					0.057887605354189873,
					1
				],
				"metallicFactor":0
			}
		},
		{
			"doubleSided":true,
			"name":"Steel",
			"pbrMetallicRoughness":{
				"baseColorFactor":[
					0.327483206987381,
					0.327483206987381,
					0.327483206987381,
					1
				],
				"metallicFactor":0.3056994676589966,
				"roughnessFactor":0.38082900643348694
			}
		},
		{
			"doubleSided":true,
			"emissiveFactor":[
				100,
				100,
				100
			],
			"extensions":{
				"KHR_materials_emissive_strength":{
					"emissiveStrength":1
				}
			},
			"name":"Light",
			"pbrMetallicRoughness":{
				"baseColorFactor":[
					0,
					0,
					0,
					1
				]
			}
		}
	],
	"meshes":[
		{
			"name":"Cube",
			"primitives":[
				{
					"attributes":{
						"POSITION":0,
						"NORMAL":1,
						"TEXCOORD_0":2
					},
					"indices":3,
					"material":0
				},
				{
					"attributes":{
						"POSITION":4,
						"NORMAL":5,
						"TEXCOORD_0":6
					},
					"indices":7,
					"material":1
				},
				{
					"attributes":{
						"POSITION":8,
						"NORMAL":9,
						"TEXCOORD_0":10
					},
					"indices":11,
					"material":2
				}
			]
		},
		{
			"name":"LeftCube",
			"primitives":[
				{
					"attributes":{
						"POSITION":12,
						"NORMAL":13,
						"TEXCOORD_0":14
					},
					"indices":15,
					"material":3
				}
			]
		},
		{
			"name":"Plane",
			"primitives":[
				{
					"attributes":{
						"POSITION":16,
						"NORMAL":17,
						"TEXCOORD_0":18
					},
					"indices":19,
					"material":4
				}
			]
		},
		{
			"name":"RightCube",
			"primitives":[
				{
					"attributes":{
						"POSITION":20,
						"NORMAL":21,
						"TEXCOORD_0":22
					},
					"indices":23
				}
			]
		}
	],
	"accessors":[
		{
			"bufferView":0,
			"componentType":5126,
			"count":16,
			"max":[
				2.036391019821167,
				2.2624692916870117,
				13.898136138916016
			],
			"min":[
				-2.036391019821167,
				-2.2624692916870117,
				-2.195133686065674
			],
			"type":"VEC3"
		},
		{
			"bufferView":1,
			"componentType":5126,
			"count":16,
			"type":"VEC3"
		},
		{
			"bufferView":2,
			"componentType":5126,
			"count":16,
			"type":"VEC2"
		},
		{
			"bufferView":3,
			"componentType":5123,
			"count":24,
			"type":"SCALAR"
		},
		{
			"bufferView":4,
			"componentType":5126,
			"count":4,
			"max":[
				-2.036391019821167,
				2.2624692916870117,
				13.898136138916016
			],
			"min":[
				-2.036391019821167,
				-2.2624692916870117,
				-2.195133686065674
			],
			"type":"VEC3"
		},
		{
			"bufferView":5,
			"componentType":5126,
			"count":4,
			"type":"VEC3"
		},
		{
			"bufferView":6,
			"componentType":5126,
			"count":4,
			"type":"VEC2"
		},
		{
			"bufferView":7,
			"componentType":5123,
			"count":6,
			"type":"SCALAR"
		},
		{
			"bufferView":8,
			"componentType":5126,
			"count":4,
			"max":[
				2.036391019821167,
				2.2624692916870117,
				13.898136138916016
			],
			"min":[
				2.036391019821167,
				-2.2624692916870117,
				-2.195133686065674
			],
			"type":"VEC3"
		},
		{
			"bufferView":9,
			"componentType":5126,
			"count":4,
			"type":"VEC3"
		},
		{
			"bufferView":10,
			"componentType":5126,
			"count":4,
			"type":"VEC2"
		},
		{
			"bufferView":11,
			"componentType":5123,
			"count":6,
			"type":"SCALAR"
		},
		{
			"bufferView":12,
			"componentType":5126,
			"count":24,
			"max":[
				-0.23397749662399292,
				0.11202430725097656,
				-0.3011093735694885
			],
			"min":[
				-1.6543967723846436,
				-2.266648292541504,
				-1.7215287685394287
			],
			"type":"VEC3"
		},
		{
			"bufferView":13,
			"componentType":5126,
			"count":24,
			"type":"VEC3"
		},
		{
			"bufferView":14,
			"componentType":5126,
			"count":24,
			"type":"VEC2"
		},
		{
			"bufferView":15,
			"componentType":5123,
			"count":36,
			"type":"SCALAR"
		},
		{
			"bufferView":16,
			"componentType":5126,
			"count":4,
			"max":[
				0.45218712091445923,
				2.2610514163970947,
				0.45218712091445923
			],
			"min":[
				-0.45218712091445923,
				2.2610509395599365,
				-0.45218712091445923
			],
			"type":"VEC3"
		},
		{
			"bufferView":17,
			"componentType":5126,
			"count":4,
			"type":"VEC3"
		},
		{
			"bufferView":18,
			"componentType":5126,
			"count":4,
			"type":"VEC2"
		},
		{
			"bufferView":19,
			"componentType":5123,
			"count":6,
			"type":"SCALAR"
		},
		{
			"bufferView":20,
			"componentType":5126,
			"count":24,
			"max":[
				1.6684410572052002,
				-0.8627873659133911,
				1.4321025609970093
			],
			"min":[
				0.2504005432128906,
				-2.392425060272217,
				0.014062047004699707
			],
			"type":"VEC3"
		},
		{
			"bufferView":21,
			"componentType":5126,
			"count":24,
			"type":"VEC3"
		},
		{
			"bufferView":22,
			"componentType":5126,
			"count":24,
			"type":"VEC2"
		},
		{
			"bufferView":23,
			"componentType":5123,
			"count":36,
			"type":"SCALAR"
		}
	],
	"bufferViews":[
		{
			"buffer":0,
			"byteLength":192,
			"byteOffset":0,
			"target":34962
		},
		{
			"buffer":0,
			"byteLength":192,
			"byteOffset":192,
			"target":34962
		},
		{
			"buffer":0,
			"byteLength":128,
			"byteOffset":384,
			"target":34962
		},
		{
			"buffer":0,
			"byteLength":48,
			"byteOffset":512,
			"target":34963
		},
		{
			"buffer":0,
			"byteLength":48,
			"byteOffset":560,
			"target":34962
		},
		{
			"buffer":0,
			"byteLength":48,
			"byteOffset":608,
			"target":34962
		},
		{
			"buffer":0,
			"byteLength":32,
			"byteOffset":656,
			"target":34962
		},
		{
			"buffer":0,
			"byteLength":12,
			"byteOffset":688,
			"target":34963
		},
		{
			"buffer":0,
			"byteLength":48,
			"byteOffset":700,
			"target":34962
		},
		{
			"buffer":0,
			"byteLength":48,
			"byteOffset":748,
			"target":34962
		},
		{
			"buffer":0,
			"byteLength":32,
			"byteOffset":796,
			"target":34962
		},
		{
			"buffer":0,
			"byteLength":12,
			"byteOffset":828,
			"target":34963
		},
		{
			"buffer":0,
			"byteLength":288,
			"byteOffset":840,
			"target":34962
		},
		{
			"buffer":0,
			"byteLength":288,
			"byteOffset":1128,
			"target":34962
		},
		{
			"buffer":0,
			"byteLength":192,
			"byteOffset":1416,
			"target":34962
		},
		{
			"buffer":0,
			"byteLength":72,
			"byteOffset":1608,
			"target":34963
		},
		{
			"buffer":0,
			"byteLength":48,
			"byteOffset":1680,
			"target":34962
		},
		{
			"buffer":0,
			"byteLength":48,
			"byteOffset":1728,
			"target":34962
		},
		{
			"buffer":0,
			"byteLength":32,
			"byteOffset":1776,
			"target":34962
		},
		{
			"buffer":0,
			"byteLength":12,
			"byteOffset":1808,
			"target":34963
		},
		{
			"buffer":0,
			"byteLength":288,
			"byteOffset":1820,
			"target":34962
		},
		{
			"buffer":0,
			"byteLength":288,
			"byteOffset":2108,
			"target":34962
		},
		{
			"buffer":0,
			"byteLength":192,
			"byteOffset":2396,
			"target":34962
		},
		{
			"buffer":0,
			"byteLength":72,
			"byteOffset":2588,
			"target":34963
		}
	],
	"buffers":[
		{
			"byteLength":2660,
			"uri":"closed_cornell_box.bin"
		}
	]
}
